<svg width="18" height="18" viewBox="0 0 18 18" fill="none" xmlns="http://www.w3.org/2000/svg">
<g id="fi-rr-comment-user" clip-path="url(#clip0_421_10590)">
<path id="Vector" d="M9 7.5C8.40326 7.5 7.83097 7.26295 7.40901 6.84099C6.98705 6.41903 6.75 5.84674 6.75 5.25C6.75 4.65326 6.98705 4.08097 7.40901 3.65901C7.83097 3.23705 8.40326 3 9 3C9.59674 3 10.169 3.23705 10.591 3.65901C11.0129 4.08097 11.25 4.65326 11.25 5.25C11.25 5.84674 11.0129 6.41903 10.591 6.84099C10.169 7.26295 9.59674 7.5 9 7.5ZM6.726 11.4367C6.88023 10.9549 7.18355 10.5345 7.5922 10.2362C8.00085 9.93796 8.4937 9.77723 8.99963 9.77723C9.50555 9.77723 9.9984 9.93796 10.407 10.2362C10.8157 10.5345 11.119 10.9549 11.2733 11.4367C11.323 11.6295 11.4472 11.7946 11.6187 11.8957C11.7901 11.9969 11.9948 12.0257 12.1875 11.976C12.3802 11.9263 12.5453 11.802 12.6465 11.6306C12.7476 11.4591 12.7765 11.2545 12.7267 11.0617C11.7435 7.3515 6.25425 7.353 5.274 11.0617C5.24692 11.1579 5.23932 11.2584 5.25163 11.3576C5.26394 11.4567 5.29592 11.5523 5.3457 11.6389C5.39547 11.7255 5.46203 11.8012 5.54148 11.8617C5.62093 11.9223 5.71167 11.9663 5.80836 11.9913C5.90506 12.0162 6.00577 12.0216 6.10458 12.0072C6.2034 11.9927 6.29833 11.9586 6.3838 11.907C6.46928 11.8553 6.54357 11.7871 6.60234 11.7064C6.6611 11.6256 6.70314 11.534 6.726 11.4367ZM9.00675 17.7488C8.63673 17.749 8.27956 17.6131 8.00325 17.367L5.19225 15H3C2.20435 15 1.44129 14.6839 0.87868 14.1213C0.316071 13.5587 0 12.7956 0 12V3C0 2.20435 0.316071 1.44129 0.87868 0.87868C1.44129 0.316071 2.20435 0 3 0L15 0C15.7956 0 16.5587 0.316071 17.1213 0.87868C17.6839 1.44129 18 2.20435 18 3V12C18 12.7956 17.6839 13.5587 17.1213 14.1213C16.5587 14.6839 15.7956 15 15 15H12.8602L9.975 17.385C9.7077 17.6207 9.36316 17.7502 9.00675 17.7488ZM3 1.5C2.60218 1.5 2.22064 1.65804 1.93934 1.93934C1.65804 2.22064 1.5 2.60218 1.5 3V12C1.5 12.3978 1.65804 12.7794 1.93934 13.0607C2.22064 13.342 2.60218 13.5 3 13.5H5.46675C5.64349 13.5 5.81455 13.5624 5.94975 13.6763L8.98425 16.2337L12.1132 13.6718C12.2477 13.5607 12.4166 13.5 12.591 13.5H15C15.3978 13.5 15.7794 13.342 16.0607 13.0607C16.342 12.7794 16.5 12.3978 16.5 12V3C16.5 2.60218 16.342 2.22064 16.0607 1.93934C15.7794 1.65804 15.3978 1.5 15 1.5H3Z" fill="#040406"/>
</g>
<defs>
<clipPath id="clip0_421_10590">
<rect width="18" height="18" fill="white"/>
</clipPath>
</defs>
</svg>
