<svg width="24" height="24" viewBox="0 0 24 24" fill="none" xmlns="http://www.w3.org/2000/svg">
<g id="fi-ss-heart" clip-path="url(#clip0_682_32079)">
<path id="Vector" d="M17.5004 0.916992C16.3744 0.934507 15.2729 1.24885 14.3072 1.82826C13.3415 2.40768 12.5458 3.23166 12.0004 4.21699C11.4551 3.23166 10.6594 2.40768 9.69368 1.82826C8.72799 1.24885 7.6265 0.934507 6.50045 0.916992C4.70539 0.994983 3.01415 1.78025 1.79623 3.10122C0.578306 4.4222 -0.067304 6.17152 0.000446572 7.96699C0.000446572 14.742 10.9564 22.567 11.4224 22.899L12.0004 23.308L12.5784 22.899C13.0444 22.569 24.0004 14.742 24.0004 7.96699C24.0682 6.17152 23.4226 4.4222 22.2047 3.10122C20.9867 1.78025 19.2955 0.994983 17.5004 0.916992Z" fill="white"/>
</g>
<defs>
<clipPath id="clip0_682_32079">
<rect width="24" height="24" fill="white"/>
</clipPath>
</defs>
</svg>
