<svg width="18" height="18" viewBox="0 0 18 18" fill="none" xmlns="http://www.w3.org/2000/svg">
<g id="fi-rr-user-delete" clip-path="url(#clip0_294_4261)">
<path id="Vector" d="M12.75 18C12.5511 18 12.3603 17.921 12.2197 17.7803C12.079 17.6397 12 17.4489 12 17.25C12 15.8576 11.4469 14.5223 10.4623 13.5377C9.47774 12.5531 8.14239 12 6.75 12C5.35761 12 4.02226 12.5531 3.03769 13.5377C2.05312 14.5223 1.5 15.8576 1.5 17.25C1.5 17.4489 1.42098 17.6397 1.28033 17.7803C1.13968 17.921 0.948912 18 0.75 18C0.551088 18 0.360322 17.921 0.21967 17.7803C0.0790176 17.6397 0 17.4489 0 17.25C0 15.4598 0.711159 13.7429 1.97703 12.477C3.2429 11.2112 4.95979 10.5 6.75 10.5C8.54021 10.5 10.2571 11.2112 11.523 12.477C12.7888 13.7429 13.5 15.4598 13.5 17.25C13.5 17.4489 13.421 17.6397 13.2803 17.7803C13.1397 17.921 12.9489 18 12.75 18ZM17.25 9.75H12.75C12.5511 9.75 12.3603 9.67098 12.2197 9.53033C12.079 9.38968 12 9.19891 12 9C12 8.80109 12.079 8.61032 12.2197 8.46967C12.3603 8.32902 12.5511 8.25 12.75 8.25H17.25C17.4489 8.25 17.6397 8.32902 17.7803 8.46967C17.921 8.61032 18 8.80109 18 9C18 9.19891 17.921 9.38968 17.7803 9.53033C17.6397 9.67098 17.4489 9.75 17.25 9.75ZM6.75 9C5.85998 9 4.98996 8.73608 4.24993 8.24162C3.50991 7.74715 2.93314 7.04434 2.59254 6.22208C2.25195 5.39981 2.16283 4.49501 2.33647 3.6221C2.5101 2.74918 2.93868 1.94736 3.56802 1.31802C4.19736 0.688685 4.99918 0.260102 5.87209 0.0864683C6.74501 -0.0871652 7.64981 0.00194979 8.47208 0.342544C9.29434 0.683138 9.99715 1.25991 10.4916 1.99994C10.9861 2.73996 11.25 3.60999 11.25 4.5C11.2488 5.69311 10.7743 6.83701 9.93067 7.68067C9.08701 8.52432 7.94311 8.99881 6.75 9ZM6.75 1.5C6.15666 1.5 5.57664 1.67595 5.08329 2.00559C4.58994 2.33524 4.20542 2.80377 3.97836 3.35195C3.7513 3.90013 3.69189 4.50333 3.80764 5.08527C3.9234 5.66722 4.20912 6.20177 4.62868 6.62132C5.04824 7.04088 5.58279 7.3266 6.16473 7.44236C6.74667 7.55811 7.34987 7.4987 7.89805 7.27164C8.44623 7.04458 8.91476 6.66006 9.24441 6.16671C9.57405 5.67337 9.75 5.09335 9.75 4.5C9.75 3.70435 9.43393 2.94129 8.87132 2.37868C8.30871 1.81607 7.54565 1.5 6.75 1.5Z" fill="white"/>
</g>
<defs>
<clipPath id="clip0_294_4261">
<rect width="18" height="18" fill="white"/>
</clipPath>
</defs>
</svg>
