<svg width="25" height="26" viewBox="0 0 25 26" fill="none" xmlns="http://www.w3.org/2000/svg">
<g id="Image">
<mask id="mask0_416_3600" style="mask-type:alpha" maskUnits="userSpaceOnUse" x="0" y="0" width="25" height="26">
<rect id="Bounding box" y="0.5" width="25" height="25" fill="#D9D9D9"/>
</mask>
<g mask="url(#mask0_416_3600)">
<path id="image" d="M7.29167 18.2083H17.7083C17.9167 18.2083 18.0729 18.1128 18.1771 17.9219C18.2812 17.7309 18.2639 17.5486 18.125 17.375L15.2604 13.5469C15.1562 13.408 15.0174 13.3385 14.8438 13.3385C14.6701 13.3385 14.5312 13.408 14.4271 13.5469L11.7188 17.1667L9.79167 14.5885C9.6875 14.4497 9.54861 14.3802 9.375 14.3802C9.20139 14.3802 9.0625 14.4497 8.95833 14.5885L6.875 17.375C6.73611 17.5486 6.71875 17.7309 6.82292 17.9219C6.92708 18.1128 7.08333 18.2083 7.29167 18.2083ZM5.20833 22.375C4.63542 22.375 4.14479 22.1712 3.73646 21.7635C3.32882 21.3552 3.125 20.8646 3.125 20.2917V5.70833C3.125 5.13542 3.32882 4.64479 3.73646 4.23646C4.14479 3.82882 4.63542 3.625 5.20833 3.625H19.7917C20.3646 3.625 20.8552 3.82882 21.2635 4.23646C21.6712 4.64479 21.875 5.13542 21.875 5.70833V20.2917C21.875 20.8646 21.6712 21.3552 21.2635 21.7635C20.8552 22.1712 20.3646 22.375 19.7917 22.375H5.20833Z" fill="#040406"/>
</g>
</g>
</svg>
