<svg width="18" height="18" viewBox="0 0 18 18" fill="none" xmlns="http://www.w3.org/2000/svg">
<g id="fi-rs-comment-info" clip-path="url(#clip0_421_10593)">
<path id="Vector" d="M10.125 4.875C10.125 5.09751 10.059 5.31502 9.93541 5.50002C9.81179 5.68503 9.63609 5.82922 9.43052 5.91437C9.22496 5.99952 8.99876 6.0218 8.78053 5.97839C8.5623 5.93498 8.36184 5.82783 8.20451 5.6705C8.04718 5.51316 7.94003 5.31271 7.89662 5.09448C7.85321 4.87625 7.87549 4.65005 7.96064 4.44449C8.04579 4.23892 8.18998 4.06322 8.37499 3.9396C8.55999 3.81598 8.7775 3.75 9 3.75C9.29837 3.75 9.58452 3.86853 9.7955 4.07951C10.0065 4.29049 10.125 4.57664 10.125 4.875ZM18 9C18 7.21997 17.4722 5.47991 16.4832 3.99987C15.4943 2.51983 14.0887 1.36628 12.4442 0.685088C10.7996 0.00389957 8.99002 -0.17433 7.24419 0.172937C5.49836 0.520204 3.89472 1.37737 2.63604 2.63604C1.37737 3.89472 0.520204 5.49836 0.172937 7.24419C-0.17433 8.99002 0.00389957 10.7996 0.685088 12.4442C1.36628 14.0887 2.51983 15.4943 3.99987 16.4832C5.47991 17.4722 7.21997 18 9 18H18V9ZM16.5 9V16.5H9C7.51664 16.5 6.0666 16.0601 4.83323 15.236C3.59986 14.4119 2.63856 13.2406 2.07091 11.8701C1.50325 10.4997 1.35473 8.99168 1.64411 7.53683C1.9335 6.08197 2.64781 4.7456 3.6967 3.6967C4.7456 2.64781 6.08197 1.9335 7.53683 1.64411C8.99168 1.35473 10.4997 1.50325 11.8701 2.07091C13.2406 2.63856 14.4119 3.59986 15.236 4.83323C16.0601 6.0666 16.5 7.51664 16.5 9ZM10.5 9C10.5 8.60218 10.342 8.22065 10.0607 7.93934C9.77936 7.65804 9.39783 7.5 9 7.5H7.5V9H9V14.25H10.5V9Z" fill="#E84127"/>
</g>
<defs>
<clipPath id="clip0_421_10593">
<rect width="18" height="18" fill="white"/>
</clipPath>
</defs>
</svg>
