<svg width="24" height="24" viewBox="0 0 24 24" fill="none" xmlns="http://www.w3.org/2000/svg">
<g id="fi-sr-comment" clip-path="url(#clip0_682_32084)">
<path id="Vector" d="M19.6751 2.75827C18.4081 1.70392 16.9364 0.923427 15.3529 0.465964C13.7693 0.00850183 12.1081 -0.116013 10.4741 0.100265C7.45114 0.492983 4.69096 2.02144 2.754 4.37527C0.817033 6.72911 -0.151521 9.73188 0.0450001 12.7739C0.241521 15.8159 1.58838 18.6691 3.81211 20.7541C6.03584 22.8392 8.96974 23.9998 12.0181 24.0003H19.0001C20.3257 23.9987 21.5965 23.4714 22.5339 22.534C23.4712 21.5967 23.9985 20.3259 24.0001 19.0003V11.3093V11.2463C23.8942 9.61171 23.4561 8.01592 22.7125 6.55648C21.9688 5.09704 20.9353 3.80462 19.6751 2.75827ZM8.00008 7.00027H12.0001C12.2653 7.00027 12.5196 7.10562 12.7072 7.29316C12.8947 7.4807 13.0001 7.73505 13.0001 8.00027C13.0001 8.26548 12.8947 8.51984 12.7072 8.70737C12.5196 8.89491 12.2653 9.00027 12.0001 9.00027H8.00008C7.73486 9.00027 7.48051 8.89491 7.29297 8.70737C7.10543 8.51984 7.00008 8.26548 7.00008 8.00027C7.00008 7.73505 7.10543 7.4807 7.29297 7.29316C7.48051 7.10562 7.73486 7.00027 8.00008 7.00027ZM16.0001 17.0003H8.00008C7.73486 17.0003 7.48051 16.8949 7.29297 16.7074C7.10543 16.5198 7.00008 16.2655 7.00008 16.0003C7.00008 15.7351 7.10543 15.4807 7.29297 15.2932C7.48051 15.1056 7.73486 15.0003 8.00008 15.0003H16.0001C16.2653 15.0003 16.5196 15.1056 16.7072 15.2932C16.8947 15.4807 17.0001 15.7351 17.0001 16.0003C17.0001 16.2655 16.8947 16.5198 16.7072 16.7074C16.5196 16.8949 16.2653 17.0003 16.0001 17.0003ZM16.0001 13.0003H8.00008C7.73486 13.0003 7.48051 12.8949 7.29297 12.7074C7.10543 12.5198 7.00008 12.2655 7.00008 12.0003C7.00008 11.7351 7.10543 11.4807 7.29297 11.2932C7.48051 11.1056 7.73486 11.0003 8.00008 11.0003H16.0001C16.2653 11.0003 16.5196 11.1056 16.7072 11.2932C16.8947 11.4807 17.0001 11.7351 17.0001 12.0003C17.0001 12.2655 16.8947 12.5198 16.7072 12.7074C16.5196 12.8949 16.2653 13.0003 16.0001 13.0003Z" fill="white"/>
</g>
<defs>
<clipPath id="clip0_682_32084">
<rect width="24" height="24" fill="white"/>
</clipPath>
</defs>
</svg>
